# xmcd
#
# Track frame offsets:
#	182
#	20032
#	40240
#	60072
#	79092
#	101335
#	120580
#	140255
#	153915
#	171085
#	187327
#
# Disc length: 2704 seconds
#
# Revision: 9
# Processed by: cddbd v1.5.2PL0 Copyright (c) Steve Scherf et al.
# Submitted via: EasyCDDAExtractor 15.3.0.1
#
DISCID=850a8e0b
DTITLE=Pandora - ...Con Amor Eterno
DYEAR=1991
DGENRE=Latin
TTITLE0=Con Tu Amor
TTITLE1=Costumbres
TTITLE2=El Farsante
TTITLE3=El Dia Que Me Acaricies Llorare
TTITLE4=Popurri (Debo Hacerlo, Caray, Querida, Me Nace Del Corazon)
TTITLE5=Nadie Baila Como Tu, El Noa Noa
TTITLE6=Amor Eterno
TTITLE7=No Lastimes Mas
TTITLE8=Yo No Naci Para Amar
TTITLE9=Lagrimas Y Lluvia
TTITLE10=Se Me Olvido Otra Vez
EXTD=
EXTT0=
EXTT1=
EXTT2=
EXTT3=
EXTT4=Debo Hacerlo\nCaray\nQuerida\nMe nace del coraz n
EXTT5=
EXTT6=
EXTT7=
EXTT8=
EXTT9=
EXTT10=
PLAYORDER=
